%TF.GenerationSoftware,KiCad,Pcbnew,(6.0.1)*%
%TF.CreationDate,2022-07-03T17:59:52-04:00*%
%TF.ProjectId,tesy,74657379-2e6b-4696-9361-645f70636258,rev?*%
%TF.SameCoordinates,Original*%
%TF.FileFunction,Legend,Top*%
%TF.FilePolarity,Positive*%
%FSLAX46Y46*%
G04 Gerber Fmt 4.6, Leading zero omitted, Abs format (unit mm)*
G04 Created by KiCad (PCBNEW (6.0.1)) date 2022-07-03 17:59:52*
%MOMM*%
%LPD*%
G01*
G04 APERTURE LIST*
%ADD10C,0.300000*%
%ADD11C,0.150000*%
%ADD12C,0.120000*%
%ADD13C,0.100000*%
G04 APERTURE END LIST*
D10*
X136552857Y-121812857D02*
X136767142Y-121884285D01*
X136838571Y-121955714D01*
X136910000Y-122098571D01*
X136910000Y-122312857D01*
X136838571Y-122455714D01*
X136767142Y-122527142D01*
X136624285Y-122598571D01*
X136052857Y-122598571D01*
X136052857Y-121098571D01*
X136552857Y-121098571D01*
X136695714Y-121170000D01*
X136767142Y-121241428D01*
X136838571Y-121384285D01*
X136838571Y-121527142D01*
X136767142Y-121670000D01*
X136695714Y-121741428D01*
X136552857Y-121812857D01*
X136052857Y-121812857D01*
X137410000Y-121098571D02*
X138338571Y-121098571D01*
X137838571Y-121670000D01*
X138052857Y-121670000D01*
X138195714Y-121741428D01*
X138267142Y-121812857D01*
X138338571Y-121955714D01*
X138338571Y-122312857D01*
X138267142Y-122455714D01*
X138195714Y-122527142D01*
X138052857Y-122598571D01*
X137624285Y-122598571D01*
X137481428Y-122527142D01*
X137410000Y-122455714D01*
D11*
X83320000Y-125221904D02*
X83272380Y-125317142D01*
X83272380Y-125460000D01*
X83320000Y-125602857D01*
X83415238Y-125698095D01*
X83510476Y-125745714D01*
X83700952Y-125793333D01*
X83843809Y-125793333D01*
X84034285Y-125745714D01*
X84129523Y-125698095D01*
X84224761Y-125602857D01*
X84272380Y-125460000D01*
X84272380Y-125364761D01*
X84224761Y-125221904D01*
X84177142Y-125174285D01*
X83843809Y-125174285D01*
X83843809Y-125364761D01*
X84272380Y-124745714D02*
X83272380Y-124745714D01*
X84272380Y-124174285D01*
X83272380Y-124174285D01*
X84272380Y-123698095D02*
X83272380Y-123698095D01*
X83272380Y-123460000D01*
X83320000Y-123317142D01*
X83415238Y-123221904D01*
X83510476Y-123174285D01*
X83700952Y-123126666D01*
X83843809Y-123126666D01*
X84034285Y-123174285D01*
X84129523Y-123221904D01*
X84224761Y-123317142D01*
X84272380Y-123460000D01*
X84272380Y-123698095D01*
D10*
X116232857Y-121812857D02*
X116447142Y-121884285D01*
X116518571Y-121955714D01*
X116590000Y-122098571D01*
X116590000Y-122312857D01*
X116518571Y-122455714D01*
X116447142Y-122527142D01*
X116304285Y-122598571D01*
X115732857Y-122598571D01*
X115732857Y-121098571D01*
X116232857Y-121098571D01*
X116375714Y-121170000D01*
X116447142Y-121241428D01*
X116518571Y-121384285D01*
X116518571Y-121527142D01*
X116447142Y-121670000D01*
X116375714Y-121741428D01*
X116232857Y-121812857D01*
X115732857Y-121812857D01*
X117090000Y-121098571D02*
X118090000Y-121098571D01*
X117447142Y-122598571D01*
X49728571Y-122170000D02*
X50442857Y-122170000D01*
X49585714Y-122598571D02*
X50085714Y-121098571D01*
X50585714Y-122598571D01*
X51728571Y-121598571D02*
X51728571Y-122598571D01*
X51371428Y-121027142D02*
X51014285Y-122098571D01*
X51942857Y-122098571D01*
D11*
X80732380Y-125793333D02*
X81732380Y-125460000D01*
X80732380Y-125126666D01*
X81637142Y-124221904D02*
X81684761Y-124269523D01*
X81732380Y-124412380D01*
X81732380Y-124507619D01*
X81684761Y-124650476D01*
X81589523Y-124745714D01*
X81494285Y-124793333D01*
X81303809Y-124840952D01*
X81160952Y-124840952D01*
X80970476Y-124793333D01*
X80875238Y-124745714D01*
X80780000Y-124650476D01*
X80732380Y-124507619D01*
X80732380Y-124412380D01*
X80780000Y-124269523D01*
X80827619Y-124221904D01*
X81637142Y-123221904D02*
X81684761Y-123269523D01*
X81732380Y-123412380D01*
X81732380Y-123507619D01*
X81684761Y-123650476D01*
X81589523Y-123745714D01*
X81494285Y-123793333D01*
X81303809Y-123840952D01*
X81160952Y-123840952D01*
X80970476Y-123793333D01*
X80875238Y-123745714D01*
X80780000Y-123650476D01*
X80732380Y-123507619D01*
X80732380Y-123412380D01*
X80780000Y-123269523D01*
X80827619Y-123221904D01*
D10*
X54808571Y-122170000D02*
X55522857Y-122170000D01*
X54665714Y-122598571D02*
X55165714Y-121098571D01*
X55665714Y-122598571D01*
X56022857Y-121098571D02*
X56951428Y-121098571D01*
X56451428Y-121670000D01*
X56665714Y-121670000D01*
X56808571Y-121741428D01*
X56880000Y-121812857D01*
X56951428Y-121955714D01*
X56951428Y-122312857D01*
X56880000Y-122455714D01*
X56808571Y-122527142D01*
X56665714Y-122598571D01*
X56237142Y-122598571D01*
X56094285Y-122527142D01*
X56022857Y-122455714D01*
X146712857Y-121812857D02*
X146927142Y-121884285D01*
X146998571Y-121955714D01*
X147070000Y-122098571D01*
X147070000Y-122312857D01*
X146998571Y-122455714D01*
X146927142Y-122527142D01*
X146784285Y-122598571D01*
X146212857Y-122598571D01*
X146212857Y-121098571D01*
X146712857Y-121098571D01*
X146855714Y-121170000D01*
X146927142Y-121241428D01*
X146998571Y-121384285D01*
X146998571Y-121527142D01*
X146927142Y-121670000D01*
X146855714Y-121741428D01*
X146712857Y-121812857D01*
X146212857Y-121812857D01*
X148498571Y-122598571D02*
X147641428Y-122598571D01*
X148070000Y-122598571D02*
X148070000Y-121098571D01*
X147927142Y-121312857D01*
X147784285Y-121455714D01*
X147641428Y-121527142D01*
D11*
X93480000Y-125221904D02*
X93432380Y-125317142D01*
X93432380Y-125460000D01*
X93480000Y-125602857D01*
X93575238Y-125698095D01*
X93670476Y-125745714D01*
X93860952Y-125793333D01*
X94003809Y-125793333D01*
X94194285Y-125745714D01*
X94289523Y-125698095D01*
X94384761Y-125602857D01*
X94432380Y-125460000D01*
X94432380Y-125364761D01*
X94384761Y-125221904D01*
X94337142Y-125174285D01*
X94003809Y-125174285D01*
X94003809Y-125364761D01*
X94432380Y-124745714D02*
X93432380Y-124745714D01*
X94432380Y-124174285D01*
X93432380Y-124174285D01*
X94432380Y-123698095D02*
X93432380Y-123698095D01*
X93432380Y-123460000D01*
X93480000Y-123317142D01*
X93575238Y-123221904D01*
X93670476Y-123174285D01*
X93860952Y-123126666D01*
X94003809Y-123126666D01*
X94194285Y-123174285D01*
X94289523Y-123221904D01*
X94384761Y-123317142D01*
X94432380Y-123460000D01*
X94432380Y-123698095D01*
D10*
X126392857Y-121812857D02*
X126607142Y-121884285D01*
X126678571Y-121955714D01*
X126750000Y-122098571D01*
X126750000Y-122312857D01*
X126678571Y-122455714D01*
X126607142Y-122527142D01*
X126464285Y-122598571D01*
X125892857Y-122598571D01*
X125892857Y-121098571D01*
X126392857Y-121098571D01*
X126535714Y-121170000D01*
X126607142Y-121241428D01*
X126678571Y-121384285D01*
X126678571Y-121527142D01*
X126607142Y-121670000D01*
X126535714Y-121741428D01*
X126392857Y-121812857D01*
X125892857Y-121812857D01*
X128107142Y-121098571D02*
X127392857Y-121098571D01*
X127321428Y-121812857D01*
X127392857Y-121741428D01*
X127535714Y-121670000D01*
X127892857Y-121670000D01*
X128035714Y-121741428D01*
X128107142Y-121812857D01*
X128178571Y-121955714D01*
X128178571Y-122312857D01*
X128107142Y-122455714D01*
X128035714Y-122527142D01*
X127892857Y-122598571D01*
X127535714Y-122598571D01*
X127392857Y-122527142D01*
X127321428Y-122455714D01*
X59888571Y-122170000D02*
X60602857Y-122170000D01*
X59745714Y-122598571D02*
X60245714Y-121098571D01*
X60745714Y-122598571D01*
X61174285Y-121241428D02*
X61245714Y-121170000D01*
X61388571Y-121098571D01*
X61745714Y-121098571D01*
X61888571Y-121170000D01*
X61960000Y-121241428D01*
X62031428Y-121384285D01*
X62031428Y-121527142D01*
X61960000Y-121741428D01*
X61102857Y-122598571D01*
X62031428Y-122598571D01*
X111152857Y-121812857D02*
X111367142Y-121884285D01*
X111438571Y-121955714D01*
X111510000Y-122098571D01*
X111510000Y-122312857D01*
X111438571Y-122455714D01*
X111367142Y-122527142D01*
X111224285Y-122598571D01*
X110652857Y-122598571D01*
X110652857Y-121098571D01*
X111152857Y-121098571D01*
X111295714Y-121170000D01*
X111367142Y-121241428D01*
X111438571Y-121384285D01*
X111438571Y-121527142D01*
X111367142Y-121670000D01*
X111295714Y-121741428D01*
X111152857Y-121812857D01*
X110652857Y-121812857D01*
X112367142Y-121741428D02*
X112224285Y-121670000D01*
X112152857Y-121598571D01*
X112081428Y-121455714D01*
X112081428Y-121384285D01*
X112152857Y-121241428D01*
X112224285Y-121170000D01*
X112367142Y-121098571D01*
X112652857Y-121098571D01*
X112795714Y-121170000D01*
X112867142Y-121241428D01*
X112938571Y-121384285D01*
X112938571Y-121455714D01*
X112867142Y-121598571D01*
X112795714Y-121670000D01*
X112652857Y-121741428D01*
X112367142Y-121741428D01*
X112224285Y-121812857D01*
X112152857Y-121884285D01*
X112081428Y-122027142D01*
X112081428Y-122312857D01*
X112152857Y-122455714D01*
X112224285Y-122527142D01*
X112367142Y-122598571D01*
X112652857Y-122598571D01*
X112795714Y-122527142D01*
X112867142Y-122455714D01*
X112938571Y-122312857D01*
X112938571Y-122027142D01*
X112867142Y-121884285D01*
X112795714Y-121812857D01*
X112652857Y-121741428D01*
X34488571Y-122170000D02*
X35202857Y-122170000D01*
X34345714Y-122598571D02*
X34845714Y-121098571D01*
X35345714Y-122598571D01*
X35702857Y-121098571D02*
X36702857Y-121098571D01*
X36060000Y-122598571D01*
X44648571Y-122170000D02*
X45362857Y-122170000D01*
X44505714Y-122598571D02*
X45005714Y-121098571D01*
X45505714Y-122598571D01*
X46720000Y-121098571D02*
X46005714Y-121098571D01*
X45934285Y-121812857D01*
X46005714Y-121741428D01*
X46148571Y-121670000D01*
X46505714Y-121670000D01*
X46648571Y-121741428D01*
X46720000Y-121812857D01*
X46791428Y-121955714D01*
X46791428Y-122312857D01*
X46720000Y-122455714D01*
X46648571Y-122527142D01*
X46505714Y-122598571D01*
X46148571Y-122598571D01*
X46005714Y-122527142D01*
X45934285Y-122455714D01*
X131472857Y-121812857D02*
X131687142Y-121884285D01*
X131758571Y-121955714D01*
X131830000Y-122098571D01*
X131830000Y-122312857D01*
X131758571Y-122455714D01*
X131687142Y-122527142D01*
X131544285Y-122598571D01*
X130972857Y-122598571D01*
X130972857Y-121098571D01*
X131472857Y-121098571D01*
X131615714Y-121170000D01*
X131687142Y-121241428D01*
X131758571Y-121384285D01*
X131758571Y-121527142D01*
X131687142Y-121670000D01*
X131615714Y-121741428D01*
X131472857Y-121812857D01*
X130972857Y-121812857D01*
X133115714Y-121598571D02*
X133115714Y-122598571D01*
X132758571Y-121027142D02*
X132401428Y-122098571D01*
X133330000Y-122098571D01*
D11*
X105419047Y-55366666D02*
X105895238Y-55366666D01*
X105323809Y-55652380D02*
X105657142Y-54652380D01*
X105990476Y-55652380D01*
X106323809Y-54985714D02*
X106323809Y-55652380D01*
X106323809Y-55080952D02*
X106371428Y-55033333D01*
X106466666Y-54985714D01*
X106609523Y-54985714D01*
X106704761Y-55033333D01*
X106752380Y-55128571D01*
X106752380Y-55652380D01*
X107657142Y-55652380D02*
X107657142Y-54652380D01*
X107657142Y-55604761D02*
X107561904Y-55652380D01*
X107371428Y-55652380D01*
X107276190Y-55604761D01*
X107228571Y-55557142D01*
X107180952Y-55461904D01*
X107180952Y-55176190D01*
X107228571Y-55080952D01*
X107276190Y-55033333D01*
X107371428Y-54985714D01*
X107561904Y-54985714D01*
X107657142Y-55033333D01*
X108133333Y-55652380D02*
X108133333Y-54985714D01*
X108133333Y-55176190D02*
X108180952Y-55080952D01*
X108228571Y-55033333D01*
X108323809Y-54985714D01*
X108419047Y-54985714D01*
X109133333Y-55604761D02*
X109038095Y-55652380D01*
X108847619Y-55652380D01*
X108752380Y-55604761D01*
X108704761Y-55509523D01*
X108704761Y-55128571D01*
X108752380Y-55033333D01*
X108847619Y-54985714D01*
X109038095Y-54985714D01*
X109133333Y-55033333D01*
X109180952Y-55128571D01*
X109180952Y-55223809D01*
X108704761Y-55319047D01*
X109514285Y-54985714D02*
X109704761Y-55652380D01*
X109895238Y-55176190D01*
X110085714Y-55652380D01*
X110276190Y-54985714D01*
X111704761Y-54652380D02*
X111704761Y-55366666D01*
X111657142Y-55509523D01*
X111561904Y-55604761D01*
X111419047Y-55652380D01*
X111323809Y-55652380D01*
X112609523Y-55652380D02*
X112609523Y-55128571D01*
X112561904Y-55033333D01*
X112466666Y-54985714D01*
X112276190Y-54985714D01*
X112180952Y-55033333D01*
X112609523Y-55604761D02*
X112514285Y-55652380D01*
X112276190Y-55652380D01*
X112180952Y-55604761D01*
X112133333Y-55509523D01*
X112133333Y-55414285D01*
X112180952Y-55319047D01*
X112276190Y-55271428D01*
X112514285Y-55271428D01*
X112609523Y-55223809D01*
X113085714Y-55652380D02*
X113085714Y-54985714D01*
X113085714Y-55080952D02*
X113133333Y-55033333D01*
X113228571Y-54985714D01*
X113371428Y-54985714D01*
X113466666Y-55033333D01*
X113514285Y-55128571D01*
X113514285Y-55652380D01*
X113514285Y-55128571D02*
X113561904Y-55033333D01*
X113657142Y-54985714D01*
X113800000Y-54985714D01*
X113895238Y-55033333D01*
X113942857Y-55128571D01*
X113942857Y-55652380D01*
X114800000Y-55604761D02*
X114704761Y-55652380D01*
X114514285Y-55652380D01*
X114419047Y-55604761D01*
X114371428Y-55509523D01*
X114371428Y-55128571D01*
X114419047Y-55033333D01*
X114514285Y-54985714D01*
X114704761Y-54985714D01*
X114800000Y-55033333D01*
X114847619Y-55128571D01*
X114847619Y-55223809D01*
X114371428Y-55319047D01*
X115228571Y-55604761D02*
X115323809Y-55652380D01*
X115514285Y-55652380D01*
X115609523Y-55604761D01*
X115657142Y-55509523D01*
X115657142Y-55461904D01*
X115609523Y-55366666D01*
X115514285Y-55319047D01*
X115371428Y-55319047D01*
X115276190Y-55271428D01*
X115228571Y-55176190D01*
X115228571Y-55128571D01*
X115276190Y-55033333D01*
X115371428Y-54985714D01*
X115514285Y-54985714D01*
X115609523Y-55033333D01*
X116752380Y-54652380D02*
X116990476Y-55652380D01*
X117180952Y-54938095D01*
X117371428Y-55652380D01*
X117609523Y-54652380D01*
X118419047Y-54985714D02*
X118419047Y-55652380D01*
X117990476Y-54985714D02*
X117990476Y-55509523D01*
X118038095Y-55604761D01*
X118133333Y-55652380D01*
X118276190Y-55652380D01*
X118371428Y-55604761D01*
X118419047Y-55557142D01*
X119276190Y-55604761D02*
X119180952Y-55652380D01*
X118990476Y-55652380D01*
X118895238Y-55604761D01*
X118847619Y-55509523D01*
X118847619Y-55128571D01*
X118895238Y-55033333D01*
X118990476Y-54985714D01*
X119180952Y-54985714D01*
X119276190Y-55033333D01*
X119323809Y-55128571D01*
X119323809Y-55223809D01*
X118847619Y-55319047D01*
X119895238Y-55652380D02*
X119800000Y-55604761D01*
X119752380Y-55509523D01*
X119752380Y-54652380D01*
X120133333Y-54985714D02*
X120514285Y-54985714D01*
X120276190Y-55652380D02*
X120276190Y-54795238D01*
X120323809Y-54700000D01*
X120419047Y-54652380D01*
X120514285Y-54652380D01*
X120847619Y-55652380D02*
X120847619Y-54985714D01*
X120847619Y-54652380D02*
X120800000Y-54700000D01*
X120847619Y-54747619D01*
X120895238Y-54700000D01*
X120847619Y-54652380D01*
X120847619Y-54747619D01*
X121323809Y-54985714D02*
X121323809Y-55652380D01*
X121323809Y-55080952D02*
X121371428Y-55033333D01*
X121466666Y-54985714D01*
X121609523Y-54985714D01*
X121704761Y-55033333D01*
X121752380Y-55128571D01*
X121752380Y-55652380D01*
X122657142Y-54985714D02*
X122657142Y-55795238D01*
X122609523Y-55890476D01*
X122561904Y-55938095D01*
X122466666Y-55985714D01*
X122323809Y-55985714D01*
X122228571Y-55938095D01*
X122657142Y-55604761D02*
X122561904Y-55652380D01*
X122371428Y-55652380D01*
X122276190Y-55604761D01*
X122228571Y-55557142D01*
X122180952Y-55461904D01*
X122180952Y-55176190D01*
X122228571Y-55080952D01*
X122276190Y-55033333D01*
X122371428Y-54985714D01*
X122561904Y-54985714D01*
X122657142Y-55033333D01*
X123180952Y-55604761D02*
X123180952Y-55652380D01*
X123133333Y-55747619D01*
X123085714Y-55795238D01*
X106919047Y-57262380D02*
X106919047Y-56738571D01*
X106871428Y-56643333D01*
X106776190Y-56595714D01*
X106585714Y-56595714D01*
X106490476Y-56643333D01*
X106919047Y-57214761D02*
X106823809Y-57262380D01*
X106585714Y-57262380D01*
X106490476Y-57214761D01*
X106442857Y-57119523D01*
X106442857Y-57024285D01*
X106490476Y-56929047D01*
X106585714Y-56881428D01*
X106823809Y-56881428D01*
X106919047Y-56833809D01*
X107300000Y-56595714D02*
X107490476Y-57262380D01*
X107680952Y-56786190D01*
X107871428Y-57262380D01*
X108061904Y-56595714D01*
X108871428Y-56595714D02*
X108871428Y-57262380D01*
X108442857Y-56595714D02*
X108442857Y-57119523D01*
X108490476Y-57214761D01*
X108585714Y-57262380D01*
X108728571Y-57262380D01*
X108823809Y-57214761D01*
X108871428Y-57167142D01*
X109728571Y-57214761D02*
X109633333Y-57262380D01*
X109442857Y-57262380D01*
X109347619Y-57214761D01*
X109300000Y-57119523D01*
X109300000Y-56738571D01*
X109347619Y-56643333D01*
X109442857Y-56595714D01*
X109633333Y-56595714D01*
X109728571Y-56643333D01*
X109776190Y-56738571D01*
X109776190Y-56833809D01*
X109300000Y-56929047D01*
X110347619Y-57262380D02*
X110252380Y-57214761D01*
X110204761Y-57119523D01*
X110204761Y-56262380D01*
X110585714Y-56595714D02*
X110966666Y-56595714D01*
X110728571Y-57262380D02*
X110728571Y-56405238D01*
X110776190Y-56310000D01*
X110871428Y-56262380D01*
X110966666Y-56262380D01*
X111300000Y-57262380D02*
X111300000Y-56595714D01*
X111300000Y-56262380D02*
X111252380Y-56310000D01*
X111300000Y-56357619D01*
X111347619Y-56310000D01*
X111300000Y-56262380D01*
X111300000Y-56357619D01*
X111776190Y-56595714D02*
X111776190Y-57262380D01*
X111776190Y-56690952D02*
X111823809Y-56643333D01*
X111919047Y-56595714D01*
X112061904Y-56595714D01*
X112157142Y-56643333D01*
X112204761Y-56738571D01*
X112204761Y-57262380D01*
X113109523Y-56595714D02*
X113109523Y-57405238D01*
X113061904Y-57500476D01*
X113014285Y-57548095D01*
X112919047Y-57595714D01*
X112776190Y-57595714D01*
X112680952Y-57548095D01*
X113109523Y-57214761D02*
X113014285Y-57262380D01*
X112823809Y-57262380D01*
X112728571Y-57214761D01*
X112680952Y-57167142D01*
X112633333Y-57071904D01*
X112633333Y-56786190D01*
X112680952Y-56690952D01*
X112728571Y-56643333D01*
X112823809Y-56595714D01*
X113014285Y-56595714D01*
X113109523Y-56643333D01*
X114204761Y-56786190D02*
X114157142Y-56738571D01*
X114061904Y-56690952D01*
X113966666Y-56690952D01*
X113871428Y-56738571D01*
X113823809Y-56786190D01*
X113776190Y-56881428D01*
X113776190Y-56976666D01*
X113823809Y-57071904D01*
X113871428Y-57119523D01*
X113966666Y-57167142D01*
X114061904Y-57167142D01*
X114157142Y-57119523D01*
X114204761Y-57071904D01*
X114204761Y-56690952D02*
X114204761Y-57071904D01*
X114252380Y-57119523D01*
X114300000Y-57119523D01*
X114395238Y-57071904D01*
X114442857Y-56976666D01*
X114442857Y-56738571D01*
X114347619Y-56595714D01*
X114204761Y-56500476D01*
X114014285Y-56452857D01*
X113823809Y-56500476D01*
X113680952Y-56595714D01*
X113585714Y-56738571D01*
X113538095Y-56929047D01*
X113585714Y-57119523D01*
X113680952Y-57262380D01*
X113823809Y-57357619D01*
X114014285Y-57405238D01*
X114204761Y-57357619D01*
X114347619Y-57262380D01*
X115300000Y-56595714D02*
X115300000Y-57405238D01*
X115252380Y-57500476D01*
X115204761Y-57548095D01*
X115109523Y-57595714D01*
X114966666Y-57595714D01*
X114871428Y-57548095D01*
X115300000Y-57214761D02*
X115204761Y-57262380D01*
X115014285Y-57262380D01*
X114919047Y-57214761D01*
X114871428Y-57167142D01*
X114823809Y-57071904D01*
X114823809Y-56786190D01*
X114871428Y-56690952D01*
X114919047Y-56643333D01*
X115014285Y-56595714D01*
X115204761Y-56595714D01*
X115300000Y-56643333D01*
X115776190Y-57262380D02*
X115776190Y-56595714D01*
X115776190Y-56690952D02*
X115823809Y-56643333D01*
X115919047Y-56595714D01*
X116061904Y-56595714D01*
X116157142Y-56643333D01*
X116204761Y-56738571D01*
X116204761Y-57262380D01*
X116204761Y-56738571D02*
X116252380Y-56643333D01*
X116347619Y-56595714D01*
X116490476Y-56595714D01*
X116585714Y-56643333D01*
X116633333Y-56738571D01*
X116633333Y-57262380D01*
X117538095Y-57262380D02*
X117538095Y-56738571D01*
X117490476Y-56643333D01*
X117395238Y-56595714D01*
X117204761Y-56595714D01*
X117109523Y-56643333D01*
X117538095Y-57214761D02*
X117442857Y-57262380D01*
X117204761Y-57262380D01*
X117109523Y-57214761D01*
X117061904Y-57119523D01*
X117061904Y-57024285D01*
X117109523Y-56929047D01*
X117204761Y-56881428D01*
X117442857Y-56881428D01*
X117538095Y-56833809D01*
X118014285Y-57262380D02*
X118014285Y-56595714D01*
X118014285Y-56262380D02*
X117966666Y-56310000D01*
X118014285Y-56357619D01*
X118061904Y-56310000D01*
X118014285Y-56262380D01*
X118014285Y-56357619D01*
X118633333Y-57262380D02*
X118538095Y-57214761D01*
X118490476Y-57119523D01*
X118490476Y-56262380D01*
X119014285Y-57167142D02*
X119061904Y-57214761D01*
X119014285Y-57262380D01*
X118966666Y-57214761D01*
X119014285Y-57167142D01*
X119014285Y-57262380D01*
X119919047Y-57214761D02*
X119823809Y-57262380D01*
X119633333Y-57262380D01*
X119538095Y-57214761D01*
X119490476Y-57167142D01*
X119442857Y-57071904D01*
X119442857Y-56786190D01*
X119490476Y-56690952D01*
X119538095Y-56643333D01*
X119633333Y-56595714D01*
X119823809Y-56595714D01*
X119919047Y-56643333D01*
X120490476Y-57262380D02*
X120395238Y-57214761D01*
X120347619Y-57167142D01*
X120300000Y-57071904D01*
X120300000Y-56786190D01*
X120347619Y-56690952D01*
X120395238Y-56643333D01*
X120490476Y-56595714D01*
X120633333Y-56595714D01*
X120728571Y-56643333D01*
X120776190Y-56690952D01*
X120823809Y-56786190D01*
X120823809Y-57071904D01*
X120776190Y-57167142D01*
X120728571Y-57214761D01*
X120633333Y-57262380D01*
X120490476Y-57262380D01*
X121252380Y-57262380D02*
X121252380Y-56595714D01*
X121252380Y-56690952D02*
X121300000Y-56643333D01*
X121395238Y-56595714D01*
X121538095Y-56595714D01*
X121633333Y-56643333D01*
X121680952Y-56738571D01*
X121680952Y-57262380D01*
X121680952Y-56738571D02*
X121728571Y-56643333D01*
X121823809Y-56595714D01*
X121966666Y-56595714D01*
X122061904Y-56643333D01*
X122109523Y-56738571D01*
X122109523Y-57262380D01*
X109442857Y-57967619D02*
X109490476Y-57920000D01*
X109585714Y-57872380D01*
X109823809Y-57872380D01*
X109919047Y-57920000D01*
X109966666Y-57967619D01*
X110014285Y-58062857D01*
X110014285Y-58158095D01*
X109966666Y-58300952D01*
X109395238Y-58872380D01*
X110014285Y-58872380D01*
X110633333Y-57872380D02*
X110728571Y-57872380D01*
X110823809Y-57920000D01*
X110871428Y-57967619D01*
X110919047Y-58062857D01*
X110966666Y-58253333D01*
X110966666Y-58491428D01*
X110919047Y-58681904D01*
X110871428Y-58777142D01*
X110823809Y-58824761D01*
X110728571Y-58872380D01*
X110633333Y-58872380D01*
X110538095Y-58824761D01*
X110490476Y-58777142D01*
X110442857Y-58681904D01*
X110395238Y-58491428D01*
X110395238Y-58253333D01*
X110442857Y-58062857D01*
X110490476Y-57967619D01*
X110538095Y-57920000D01*
X110633333Y-57872380D01*
X111347619Y-57967619D02*
X111395238Y-57920000D01*
X111490476Y-57872380D01*
X111728571Y-57872380D01*
X111823809Y-57920000D01*
X111871428Y-57967619D01*
X111919047Y-58062857D01*
X111919047Y-58158095D01*
X111871428Y-58300952D01*
X111300000Y-58872380D01*
X111919047Y-58872380D01*
X112300000Y-57967619D02*
X112347619Y-57920000D01*
X112442857Y-57872380D01*
X112680952Y-57872380D01*
X112776190Y-57920000D01*
X112823809Y-57967619D01*
X112871428Y-58062857D01*
X112871428Y-58158095D01*
X112823809Y-58300952D01*
X112252380Y-58872380D01*
X112871428Y-58872380D01*
X113300000Y-58491428D02*
X114061904Y-58491428D01*
X114728571Y-57872380D02*
X114823809Y-57872380D01*
X114919047Y-57920000D01*
X114966666Y-57967619D01*
X115014285Y-58062857D01*
X115061904Y-58253333D01*
X115061904Y-58491428D01*
X115014285Y-58681904D01*
X114966666Y-58777142D01*
X114919047Y-58824761D01*
X114823809Y-58872380D01*
X114728571Y-58872380D01*
X114633333Y-58824761D01*
X114585714Y-58777142D01*
X114538095Y-58681904D01*
X114490476Y-58491428D01*
X114490476Y-58253333D01*
X114538095Y-58062857D01*
X114585714Y-57967619D01*
X114633333Y-57920000D01*
X114728571Y-57872380D01*
X115395238Y-57872380D02*
X116061904Y-57872380D01*
X115633333Y-58872380D01*
X116442857Y-58491428D02*
X117204761Y-58491428D01*
X117871428Y-57872380D02*
X117966666Y-57872380D01*
X118061904Y-57920000D01*
X118109523Y-57967619D01*
X118157142Y-58062857D01*
X118204761Y-58253333D01*
X118204761Y-58491428D01*
X118157142Y-58681904D01*
X118109523Y-58777142D01*
X118061904Y-58824761D01*
X117966666Y-58872380D01*
X117871428Y-58872380D01*
X117776190Y-58824761D01*
X117728571Y-58777142D01*
X117680952Y-58681904D01*
X117633333Y-58491428D01*
X117633333Y-58253333D01*
X117680952Y-58062857D01*
X117728571Y-57967619D01*
X117776190Y-57920000D01*
X117871428Y-57872380D01*
X118538095Y-57872380D02*
X119157142Y-57872380D01*
X118823809Y-58253333D01*
X118966666Y-58253333D01*
X119061904Y-58300952D01*
X119109523Y-58348571D01*
X119157142Y-58443809D01*
X119157142Y-58681904D01*
X119109523Y-58777142D01*
X119061904Y-58824761D01*
X118966666Y-58872380D01*
X118680952Y-58872380D01*
X118585714Y-58824761D01*
X118538095Y-58777142D01*
X106157142Y-59958571D02*
X106490476Y-59958571D01*
X106633333Y-60482380D02*
X106157142Y-60482380D01*
X106157142Y-59482380D01*
X106633333Y-59482380D01*
X107014285Y-60434761D02*
X107157142Y-60482380D01*
X107395238Y-60482380D01*
X107490476Y-60434761D01*
X107538095Y-60387142D01*
X107585714Y-60291904D01*
X107585714Y-60196666D01*
X107538095Y-60101428D01*
X107490476Y-60053809D01*
X107395238Y-60006190D01*
X107204761Y-59958571D01*
X107109523Y-59910952D01*
X107061904Y-59863333D01*
X107014285Y-59768095D01*
X107014285Y-59672857D01*
X107061904Y-59577619D01*
X107109523Y-59530000D01*
X107204761Y-59482380D01*
X107442857Y-59482380D01*
X107585714Y-59530000D01*
X108014285Y-60482380D02*
X108014285Y-59482380D01*
X108395238Y-59482380D01*
X108490476Y-59530000D01*
X108538095Y-59577619D01*
X108585714Y-59672857D01*
X108585714Y-59815714D01*
X108538095Y-59910952D01*
X108490476Y-59958571D01*
X108395238Y-60006190D01*
X108014285Y-60006190D01*
X108919047Y-59482380D02*
X109538095Y-59482380D01*
X109204761Y-59863333D01*
X109347619Y-59863333D01*
X109442857Y-59910952D01*
X109490476Y-59958571D01*
X109538095Y-60053809D01*
X109538095Y-60291904D01*
X109490476Y-60387142D01*
X109442857Y-60434761D01*
X109347619Y-60482380D01*
X109061904Y-60482380D01*
X108966666Y-60434761D01*
X108919047Y-60387142D01*
X109919047Y-59577619D02*
X109966666Y-59530000D01*
X110061904Y-59482380D01*
X110300000Y-59482380D01*
X110395238Y-59530000D01*
X110442857Y-59577619D01*
X110490476Y-59672857D01*
X110490476Y-59768095D01*
X110442857Y-59910952D01*
X109871428Y-60482380D01*
X110490476Y-60482380D01*
X111680952Y-60482380D02*
X111680952Y-59815714D01*
X111680952Y-60006190D02*
X111728571Y-59910952D01*
X111776190Y-59863333D01*
X111871428Y-59815714D01*
X111966666Y-59815714D01*
X112680952Y-60434761D02*
X112585714Y-60482380D01*
X112395238Y-60482380D01*
X112300000Y-60434761D01*
X112252380Y-60339523D01*
X112252380Y-59958571D01*
X112300000Y-59863333D01*
X112395238Y-59815714D01*
X112585714Y-59815714D01*
X112680952Y-59863333D01*
X112728571Y-59958571D01*
X112728571Y-60053809D01*
X112252380Y-60149047D01*
X113300000Y-60482380D02*
X113204761Y-60434761D01*
X113157142Y-60339523D01*
X113157142Y-59482380D01*
X114109523Y-60482380D02*
X114109523Y-59958571D01*
X114061904Y-59863333D01*
X113966666Y-59815714D01*
X113776190Y-59815714D01*
X113680952Y-59863333D01*
X114109523Y-60434761D02*
X114014285Y-60482380D01*
X113776190Y-60482380D01*
X113680952Y-60434761D01*
X113633333Y-60339523D01*
X113633333Y-60244285D01*
X113680952Y-60149047D01*
X113776190Y-60101428D01*
X114014285Y-60101428D01*
X114109523Y-60053809D01*
X114490476Y-59815714D02*
X114728571Y-60482380D01*
X114966666Y-59815714D02*
X114728571Y-60482380D01*
X114633333Y-60720476D01*
X114585714Y-60768095D01*
X114490476Y-60815714D01*
X116109523Y-60482380D02*
X116109523Y-59482380D01*
X116109523Y-59863333D02*
X116204761Y-59815714D01*
X116395238Y-59815714D01*
X116490476Y-59863333D01*
X116538095Y-59910952D01*
X116585714Y-60006190D01*
X116585714Y-60291904D01*
X116538095Y-60387142D01*
X116490476Y-60434761D01*
X116395238Y-60482380D01*
X116204761Y-60482380D01*
X116109523Y-60434761D01*
X117157142Y-60482380D02*
X117061904Y-60434761D01*
X117014285Y-60387142D01*
X116966666Y-60291904D01*
X116966666Y-60006190D01*
X117014285Y-59910952D01*
X117061904Y-59863333D01*
X117157142Y-59815714D01*
X117299999Y-59815714D01*
X117395238Y-59863333D01*
X117442857Y-59910952D01*
X117490476Y-60006190D01*
X117490476Y-60291904D01*
X117442857Y-60387142D01*
X117395238Y-60434761D01*
X117299999Y-60482380D01*
X117157142Y-60482380D01*
X118347619Y-60482380D02*
X118347619Y-59958571D01*
X118299999Y-59863333D01*
X118204761Y-59815714D01*
X118014285Y-59815714D01*
X117919047Y-59863333D01*
X118347619Y-60434761D02*
X118252380Y-60482380D01*
X118014285Y-60482380D01*
X117919047Y-60434761D01*
X117871428Y-60339523D01*
X117871428Y-60244285D01*
X117919047Y-60149047D01*
X118014285Y-60101428D01*
X118252380Y-60101428D01*
X118347619Y-60053809D01*
X118823809Y-60482380D02*
X118823809Y-59815714D01*
X118823809Y-60006190D02*
X118871428Y-59910952D01*
X118919047Y-59863333D01*
X119014285Y-59815714D01*
X119109523Y-59815714D01*
X119871428Y-60482380D02*
X119871428Y-59482380D01*
X119871428Y-60434761D02*
X119776190Y-60482380D01*
X119585714Y-60482380D01*
X119490476Y-60434761D01*
X119442857Y-60387142D01*
X119395238Y-60291904D01*
X119395238Y-60006190D01*
X119442857Y-59910952D01*
X119490476Y-59863333D01*
X119585714Y-59815714D01*
X119776190Y-59815714D01*
X119871428Y-59863333D01*
X120966666Y-59482380D02*
X121299999Y-60482380D01*
X121633333Y-59482380D01*
X122490476Y-60482380D02*
X121919047Y-60482380D01*
X122204761Y-60482380D02*
X122204761Y-59482380D01*
X122109523Y-59625238D01*
X122014285Y-59720476D01*
X121919047Y-59768095D01*
X104847619Y-61568571D02*
X104514285Y-61568571D01*
X104514285Y-62092380D02*
X104514285Y-61092380D01*
X104990476Y-61092380D01*
X105514285Y-62092380D02*
X105419047Y-62044761D01*
X105371428Y-61997142D01*
X105323809Y-61901904D01*
X105323809Y-61616190D01*
X105371428Y-61520952D01*
X105419047Y-61473333D01*
X105514285Y-61425714D01*
X105657142Y-61425714D01*
X105752380Y-61473333D01*
X105800000Y-61520952D01*
X105847619Y-61616190D01*
X105847619Y-61901904D01*
X105800000Y-61997142D01*
X105752380Y-62044761D01*
X105657142Y-62092380D01*
X105514285Y-62092380D01*
X106276190Y-62092380D02*
X106276190Y-61425714D01*
X106276190Y-61616190D02*
X106323809Y-61520952D01*
X106371428Y-61473333D01*
X106466666Y-61425714D01*
X106561904Y-61425714D01*
X108085714Y-61425714D02*
X108085714Y-62092380D01*
X107657142Y-61425714D02*
X107657142Y-61949523D01*
X107704761Y-62044761D01*
X107800000Y-62092380D01*
X107942857Y-62092380D01*
X108038095Y-62044761D01*
X108085714Y-61997142D01*
X108514285Y-62044761D02*
X108609523Y-62092380D01*
X108800000Y-62092380D01*
X108895238Y-62044761D01*
X108942857Y-61949523D01*
X108942857Y-61901904D01*
X108895238Y-61806666D01*
X108800000Y-61759047D01*
X108657142Y-61759047D01*
X108561904Y-61711428D01*
X108514285Y-61616190D01*
X108514285Y-61568571D01*
X108561904Y-61473333D01*
X108657142Y-61425714D01*
X108800000Y-61425714D01*
X108895238Y-61473333D01*
X109752380Y-62044761D02*
X109657142Y-62092380D01*
X109466666Y-62092380D01*
X109371428Y-62044761D01*
X109323809Y-61949523D01*
X109323809Y-61568571D01*
X109371428Y-61473333D01*
X109466666Y-61425714D01*
X109657142Y-61425714D01*
X109752380Y-61473333D01*
X109800000Y-61568571D01*
X109800000Y-61663809D01*
X109323809Y-61759047D01*
X110895238Y-61425714D02*
X111085714Y-62092380D01*
X111276190Y-61616190D01*
X111466666Y-62092380D01*
X111657142Y-61425714D01*
X112038095Y-62092380D02*
X112038095Y-61425714D01*
X112038095Y-61092380D02*
X111990476Y-61140000D01*
X112038095Y-61187619D01*
X112085714Y-61140000D01*
X112038095Y-61092380D01*
X112038095Y-61187619D01*
X112371428Y-61425714D02*
X112752380Y-61425714D01*
X112514285Y-61092380D02*
X112514285Y-61949523D01*
X112561904Y-62044761D01*
X112657142Y-62092380D01*
X112752380Y-62092380D01*
X113085714Y-62092380D02*
X113085714Y-61092380D01*
X113514285Y-62092380D02*
X113514285Y-61568571D01*
X113466666Y-61473333D01*
X113371428Y-61425714D01*
X113228571Y-61425714D01*
X113133333Y-61473333D01*
X113085714Y-61520952D01*
X114752380Y-61568571D02*
X115085714Y-61568571D01*
X115228571Y-62092380D02*
X114752380Y-62092380D01*
X114752380Y-61092380D01*
X115228571Y-61092380D01*
X115561904Y-61425714D02*
X116085714Y-61425714D01*
X115561904Y-62092380D01*
X116085714Y-62092380D01*
X116419047Y-62044761D02*
X116561904Y-62092380D01*
X116800000Y-62092380D01*
X116895238Y-62044761D01*
X116942857Y-61997142D01*
X116990476Y-61901904D01*
X116990476Y-61806666D01*
X116942857Y-61711428D01*
X116895238Y-61663809D01*
X116800000Y-61616190D01*
X116609523Y-61568571D01*
X116514285Y-61520952D01*
X116466666Y-61473333D01*
X116419047Y-61378095D01*
X116419047Y-61282857D01*
X116466666Y-61187619D01*
X116514285Y-61140000D01*
X116609523Y-61092380D01*
X116847619Y-61092380D01*
X116990476Y-61140000D01*
X117752380Y-61568571D02*
X117895238Y-61616190D01*
X117942857Y-61663809D01*
X117990476Y-61759047D01*
X117990476Y-61901904D01*
X117942857Y-61997142D01*
X117895238Y-62044761D01*
X117800000Y-62092380D01*
X117419047Y-62092380D01*
X117419047Y-61092380D01*
X117752380Y-61092380D01*
X117847619Y-61140000D01*
X117895238Y-61187619D01*
X117942857Y-61282857D01*
X117942857Y-61378095D01*
X117895238Y-61473333D01*
X117847619Y-61520952D01*
X117752380Y-61568571D01*
X117419047Y-61568571D01*
X118990476Y-61997142D02*
X118942857Y-62044761D01*
X118800000Y-62092380D01*
X118704761Y-62092380D01*
X118561904Y-62044761D01*
X118466666Y-61949523D01*
X118419047Y-61854285D01*
X118371428Y-61663809D01*
X118371428Y-61520952D01*
X118419047Y-61330476D01*
X118466666Y-61235238D01*
X118561904Y-61140000D01*
X118704761Y-61092380D01*
X118800000Y-61092380D01*
X118942857Y-61140000D01*
X118990476Y-61187619D01*
X120180952Y-62092380D02*
X120180952Y-61092380D01*
X120180952Y-61568571D02*
X120752380Y-61568571D01*
X120752380Y-62092380D02*
X120752380Y-61092380D01*
X121228571Y-62092380D02*
X121228571Y-61425714D01*
X121228571Y-61092380D02*
X121180952Y-61140000D01*
X121228571Y-61187619D01*
X121276190Y-61140000D01*
X121228571Y-61092380D01*
X121228571Y-61187619D01*
X121561904Y-61092380D02*
X121895238Y-62092380D01*
X122228571Y-61092380D01*
X122704761Y-62092380D02*
X122609523Y-62044761D01*
X122561904Y-61997142D01*
X122514285Y-61901904D01*
X122514285Y-61616190D01*
X122561904Y-61520952D01*
X122609523Y-61473333D01*
X122704761Y-61425714D01*
X122847619Y-61425714D01*
X122942857Y-61473333D01*
X122990476Y-61520952D01*
X123038095Y-61616190D01*
X123038095Y-61901904D01*
X122990476Y-61997142D01*
X122942857Y-62044761D01*
X122847619Y-62092380D01*
X122704761Y-62092380D01*
X123609523Y-62092380D02*
X123514285Y-62044761D01*
X123466666Y-61949523D01*
X123466666Y-61092380D01*
X123847619Y-61425714D02*
X124228571Y-61425714D01*
X123990476Y-61092380D02*
X123990476Y-61949523D01*
X124038095Y-62044761D01*
X124133333Y-62092380D01*
X124228571Y-62092380D01*
D10*
X39568571Y-122170000D02*
X40282857Y-122170000D01*
X39425714Y-122598571D02*
X39925714Y-121098571D01*
X40425714Y-122598571D01*
X41568571Y-121098571D02*
X41282857Y-121098571D01*
X41140000Y-121170000D01*
X41068571Y-121241428D01*
X40925714Y-121455714D01*
X40854285Y-121741428D01*
X40854285Y-122312857D01*
X40925714Y-122455714D01*
X40997142Y-122527142D01*
X41140000Y-122598571D01*
X41425714Y-122598571D01*
X41568571Y-122527142D01*
X41640000Y-122455714D01*
X41711428Y-122312857D01*
X41711428Y-121955714D01*
X41640000Y-121812857D01*
X41568571Y-121741428D01*
X41425714Y-121670000D01*
X41140000Y-121670000D01*
X40997142Y-121741428D01*
X40925714Y-121812857D01*
X40854285Y-121955714D01*
X29408571Y-122170000D02*
X30122857Y-122170000D01*
X29265714Y-122598571D02*
X29765714Y-121098571D01*
X30265714Y-122598571D01*
X30980000Y-121741428D02*
X30837142Y-121670000D01*
X30765714Y-121598571D01*
X30694285Y-121455714D01*
X30694285Y-121384285D01*
X30765714Y-121241428D01*
X30837142Y-121170000D01*
X30980000Y-121098571D01*
X31265714Y-121098571D01*
X31408571Y-121170000D01*
X31480000Y-121241428D01*
X31551428Y-121384285D01*
X31551428Y-121455714D01*
X31480000Y-121598571D01*
X31408571Y-121670000D01*
X31265714Y-121741428D01*
X30980000Y-121741428D01*
X30837142Y-121812857D01*
X30765714Y-121884285D01*
X30694285Y-122027142D01*
X30694285Y-122312857D01*
X30765714Y-122455714D01*
X30837142Y-122527142D01*
X30980000Y-122598571D01*
X31265714Y-122598571D01*
X31408571Y-122527142D01*
X31480000Y-122455714D01*
X31551428Y-122312857D01*
X31551428Y-122027142D01*
X31480000Y-121884285D01*
X31408571Y-121812857D01*
X31265714Y-121741428D01*
D11*
X96020000Y-125221904D02*
X95972380Y-125317142D01*
X95972380Y-125460000D01*
X96020000Y-125602857D01*
X96115238Y-125698095D01*
X96210476Y-125745714D01*
X96400952Y-125793333D01*
X96543809Y-125793333D01*
X96734285Y-125745714D01*
X96829523Y-125698095D01*
X96924761Y-125602857D01*
X96972380Y-125460000D01*
X96972380Y-125364761D01*
X96924761Y-125221904D01*
X96877142Y-125174285D01*
X96543809Y-125174285D01*
X96543809Y-125364761D01*
X96972380Y-124745714D02*
X95972380Y-124745714D01*
X96972380Y-124174285D01*
X95972380Y-124174285D01*
X96972380Y-123698095D02*
X95972380Y-123698095D01*
X95972380Y-123460000D01*
X96020000Y-123317142D01*
X96115238Y-123221904D01*
X96210476Y-123174285D01*
X96400952Y-123126666D01*
X96543809Y-123126666D01*
X96734285Y-123174285D01*
X96829523Y-123221904D01*
X96924761Y-123317142D01*
X96972380Y-123460000D01*
X96972380Y-123698095D01*
D10*
X141632857Y-121812857D02*
X141847142Y-121884285D01*
X141918571Y-121955714D01*
X141990000Y-122098571D01*
X141990000Y-122312857D01*
X141918571Y-122455714D01*
X141847142Y-122527142D01*
X141704285Y-122598571D01*
X141132857Y-122598571D01*
X141132857Y-121098571D01*
X141632857Y-121098571D01*
X141775714Y-121170000D01*
X141847142Y-121241428D01*
X141918571Y-121384285D01*
X141918571Y-121527142D01*
X141847142Y-121670000D01*
X141775714Y-121741428D01*
X141632857Y-121812857D01*
X141132857Y-121812857D01*
X142561428Y-121241428D02*
X142632857Y-121170000D01*
X142775714Y-121098571D01*
X143132857Y-121098571D01*
X143275714Y-121170000D01*
X143347142Y-121241428D01*
X143418571Y-121384285D01*
X143418571Y-121527142D01*
X143347142Y-121741428D01*
X142490000Y-122598571D01*
X143418571Y-122598571D01*
X64968571Y-122170000D02*
X65682857Y-122170000D01*
X64825714Y-122598571D02*
X65325714Y-121098571D01*
X65825714Y-122598571D01*
X67111428Y-122598571D02*
X66254285Y-122598571D01*
X66682857Y-122598571D02*
X66682857Y-121098571D01*
X66540000Y-121312857D01*
X66397142Y-121455714D01*
X66254285Y-121527142D01*
X121312857Y-121812857D02*
X121527142Y-121884285D01*
X121598571Y-121955714D01*
X121670000Y-122098571D01*
X121670000Y-122312857D01*
X121598571Y-122455714D01*
X121527142Y-122527142D01*
X121384285Y-122598571D01*
X120812857Y-122598571D01*
X120812857Y-121098571D01*
X121312857Y-121098571D01*
X121455714Y-121170000D01*
X121527142Y-121241428D01*
X121598571Y-121384285D01*
X121598571Y-121527142D01*
X121527142Y-121670000D01*
X121455714Y-121741428D01*
X121312857Y-121812857D01*
X120812857Y-121812857D01*
X122955714Y-121098571D02*
X122670000Y-121098571D01*
X122527142Y-121170000D01*
X122455714Y-121241428D01*
X122312857Y-121455714D01*
X122241428Y-121741428D01*
X122241428Y-122312857D01*
X122312857Y-122455714D01*
X122384285Y-122527142D01*
X122527142Y-122598571D01*
X122812857Y-122598571D01*
X122955714Y-122527142D01*
X123027142Y-122455714D01*
X123098571Y-122312857D01*
X123098571Y-121955714D01*
X123027142Y-121812857D01*
X122955714Y-121741428D01*
X122812857Y-121670000D01*
X122527142Y-121670000D01*
X122384285Y-121741428D01*
X122312857Y-121812857D01*
X122241428Y-121955714D01*
D11*
%TO.C,REF1*%
X141192380Y-56912380D02*
X140859047Y-56436190D01*
X140620952Y-56912380D02*
X140620952Y-55912380D01*
X141001904Y-55912380D01*
X141097142Y-55960000D01*
X141144761Y-56007619D01*
X141192380Y-56102857D01*
X141192380Y-56245714D01*
X141144761Y-56340952D01*
X141097142Y-56388571D01*
X141001904Y-56436190D01*
X140620952Y-56436190D01*
X141620952Y-56388571D02*
X141954285Y-56388571D01*
X142097142Y-56912380D02*
X141620952Y-56912380D01*
X141620952Y-55912380D01*
X142097142Y-55912380D01*
X142859047Y-56388571D02*
X142525714Y-56388571D01*
X142525714Y-56912380D02*
X142525714Y-55912380D01*
X143001904Y-55912380D01*
X143906666Y-56912380D02*
X143335238Y-56912380D01*
X143620952Y-56912380D02*
X143620952Y-55912380D01*
X143525714Y-56055238D01*
X143430476Y-56150476D01*
X143335238Y-56198095D01*
%TO.C,U2*%
X130048095Y-63162380D02*
X130048095Y-63971904D01*
X130095714Y-64067142D01*
X130143333Y-64114761D01*
X130238571Y-64162380D01*
X130429047Y-64162380D01*
X130524285Y-64114761D01*
X130571904Y-64067142D01*
X130619523Y-63971904D01*
X130619523Y-63162380D01*
X131048095Y-63257619D02*
X131095714Y-63210000D01*
X131190952Y-63162380D01*
X131429047Y-63162380D01*
X131524285Y-63210000D01*
X131571904Y-63257619D01*
X131619523Y-63352857D01*
X131619523Y-63448095D01*
X131571904Y-63590952D01*
X131000476Y-64162380D01*
X131619523Y-64162380D01*
%TO.C,U3*%
X89408095Y-52605880D02*
X89408095Y-53415404D01*
X89455714Y-53510642D01*
X89503333Y-53558261D01*
X89598571Y-53605880D01*
X89789047Y-53605880D01*
X89884285Y-53558261D01*
X89931904Y-53510642D01*
X89979523Y-53415404D01*
X89979523Y-52605880D01*
X90360476Y-52605880D02*
X90979523Y-52605880D01*
X90646190Y-52986833D01*
X90789047Y-52986833D01*
X90884285Y-53034452D01*
X90931904Y-53082071D01*
X90979523Y-53177309D01*
X90979523Y-53415404D01*
X90931904Y-53510642D01*
X90884285Y-53558261D01*
X90789047Y-53605880D01*
X90503333Y-53605880D01*
X90408095Y-53558261D01*
X90360476Y-53510642D01*
%TO.C,J2*%
X128956666Y-134042380D02*
X128956666Y-134756666D01*
X128909047Y-134899523D01*
X128813809Y-134994761D01*
X128670952Y-135042380D01*
X128575714Y-135042380D01*
X129385238Y-134137619D02*
X129432857Y-134090000D01*
X129528095Y-134042380D01*
X129766190Y-134042380D01*
X129861428Y-134090000D01*
X129909047Y-134137619D01*
X129956666Y-134232857D01*
X129956666Y-134328095D01*
X129909047Y-134470952D01*
X129337619Y-135042380D01*
X129956666Y-135042380D01*
%TO.C,REF3*%
X103092380Y-115332380D02*
X102759047Y-114856190D01*
X102520952Y-115332380D02*
X102520952Y-114332380D01*
X102901904Y-114332380D01*
X102997142Y-114380000D01*
X103044761Y-114427619D01*
X103092380Y-114522857D01*
X103092380Y-114665714D01*
X103044761Y-114760952D01*
X102997142Y-114808571D01*
X102901904Y-114856190D01*
X102520952Y-114856190D01*
X103520952Y-114808571D02*
X103854285Y-114808571D01*
X103997142Y-115332380D02*
X103520952Y-115332380D01*
X103520952Y-114332380D01*
X103997142Y-114332380D01*
X104759047Y-114808571D02*
X104425714Y-114808571D01*
X104425714Y-115332380D02*
X104425714Y-114332380D01*
X104901904Y-114332380D01*
X105187619Y-114332380D02*
X105806666Y-114332380D01*
X105473333Y-114713333D01*
X105616190Y-114713333D01*
X105711428Y-114760952D01*
X105759047Y-114808571D01*
X105806666Y-114903809D01*
X105806666Y-115141904D01*
X105759047Y-115237142D01*
X105711428Y-115284761D01*
X105616190Y-115332380D01*
X105330476Y-115332380D01*
X105235238Y-115284761D01*
X105187619Y-115237142D01*
%TO.C,J1*%
X47676666Y-134042380D02*
X47676666Y-134756666D01*
X47629047Y-134899523D01*
X47533809Y-134994761D01*
X47390952Y-135042380D01*
X47295714Y-135042380D01*
X48676666Y-135042380D02*
X48105238Y-135042380D01*
X48390952Y-135042380D02*
X48390952Y-134042380D01*
X48295714Y-134185238D01*
X48200476Y-134280476D01*
X48105238Y-134328095D01*
%TO.C,REF2*%
X31972380Y-87392380D02*
X31639047Y-86916190D01*
X31400952Y-87392380D02*
X31400952Y-86392380D01*
X31781904Y-86392380D01*
X31877142Y-86440000D01*
X31924761Y-86487619D01*
X31972380Y-86582857D01*
X31972380Y-86725714D01*
X31924761Y-86820952D01*
X31877142Y-86868571D01*
X31781904Y-86916190D01*
X31400952Y-86916190D01*
X32400952Y-86868571D02*
X32734285Y-86868571D01*
X32877142Y-87392380D02*
X32400952Y-87392380D01*
X32400952Y-86392380D01*
X32877142Y-86392380D01*
X33639047Y-86868571D02*
X33305714Y-86868571D01*
X33305714Y-87392380D02*
X33305714Y-86392380D01*
X33781904Y-86392380D01*
X34115238Y-86487619D02*
X34162857Y-86440000D01*
X34258095Y-86392380D01*
X34496190Y-86392380D01*
X34591428Y-86440000D01*
X34639047Y-86487619D01*
X34686666Y-86582857D01*
X34686666Y-86678095D01*
X34639047Y-86820952D01*
X34067619Y-87392380D01*
X34686666Y-87392380D01*
%TO.C,U1*%
X46228095Y-63162380D02*
X46228095Y-63971904D01*
X46275714Y-64067142D01*
X46323333Y-64114761D01*
X46418571Y-64162380D01*
X46609047Y-64162380D01*
X46704285Y-64114761D01*
X46751904Y-64067142D01*
X46799523Y-63971904D01*
X46799523Y-63162380D01*
X47799523Y-64162380D02*
X47228095Y-64162380D01*
X47513809Y-64162380D02*
X47513809Y-63162380D01*
X47418571Y-63305238D01*
X47323333Y-63400476D01*
X47228095Y-63448095D01*
%TO.C,J3*%
X78402380Y-129873333D02*
X79116666Y-129873333D01*
X79259523Y-129920952D01*
X79354761Y-130016190D01*
X79402380Y-130159047D01*
X79402380Y-130254285D01*
X78402380Y-129492380D02*
X78402380Y-128873333D01*
X78783333Y-129206666D01*
X78783333Y-129063809D01*
X78830952Y-128968571D01*
X78878571Y-128920952D01*
X78973809Y-128873333D01*
X79211904Y-128873333D01*
X79307142Y-128920952D01*
X79354761Y-128968571D01*
X79402380Y-129063809D01*
X79402380Y-129349523D01*
X79354761Y-129444761D01*
X79307142Y-129492380D01*
%TO.C,J4*%
X91102380Y-129873333D02*
X91816666Y-129873333D01*
X91959523Y-129920952D01*
X92054761Y-130016190D01*
X92102380Y-130159047D01*
X92102380Y-130254285D01*
X91435714Y-128968571D02*
X92102380Y-128968571D01*
X91054761Y-129206666D02*
X91769047Y-129444761D01*
X91769047Y-128825714D01*
D12*
%TO.C,U2*%
X133460000Y-64710000D02*
X131810000Y-64710000D01*
X128160000Y-87690000D02*
X133460000Y-87690000D01*
X129810000Y-64710000D02*
X128160000Y-64710000D01*
X128160000Y-64710000D02*
X128160000Y-87690000D01*
X133460000Y-87690000D02*
X133460000Y-64710000D01*
X129810000Y-64710000D02*
G75*
G03*
X131810000Y-64710000I1000000J0D01*
G01*
%TO.C,U3*%
X101710000Y-54153500D02*
X91170000Y-54153500D01*
X101660000Y-54093500D02*
X76140000Y-54093500D01*
X78630000Y-54153500D02*
X78630000Y-105073500D01*
X101660000Y-105133500D02*
X101660000Y-54093500D01*
X78630000Y-105073500D02*
X101710000Y-105073500D01*
X89170000Y-54153500D02*
X78630000Y-54153500D01*
X99170000Y-105073500D02*
X99170000Y-54153500D01*
X76140000Y-54093500D02*
X76140000Y-105133500D01*
X76140000Y-105133500D02*
X101660000Y-105133500D01*
X78232000Y-52943500D02*
G75*
G03*
X78232000Y-52943500I-762000J0D01*
G01*
D13*
%TO.C,J2*%
X149990000Y-126140000D02*
X149990000Y-125640000D01*
X109120000Y-133440000D02*
X109620000Y-133440000D01*
X109120000Y-133440000D02*
X109120000Y-132940000D01*
X149990000Y-133440000D02*
X149490000Y-133440000D01*
X149990000Y-133440000D02*
X149990000Y-132940000D01*
X149990000Y-125640000D02*
X149490000Y-125640000D01*
X109110000Y-126130000D02*
X109110000Y-125630000D01*
X109110000Y-125630000D02*
X109610000Y-125630000D01*
%TO.C,J1*%
X68710000Y-133440000D02*
X68210000Y-133440000D01*
X68710000Y-126140000D02*
X68710000Y-125640000D01*
X27830000Y-126130000D02*
X27830000Y-125630000D01*
X27840000Y-133440000D02*
X27840000Y-132940000D01*
X68710000Y-133440000D02*
X68710000Y-132940000D01*
X27830000Y-125630000D02*
X28330000Y-125630000D01*
X27840000Y-133440000D02*
X28340000Y-133440000D01*
X68710000Y-125640000D02*
X68210000Y-125640000D01*
D12*
%TO.C,U1*%
X49640000Y-64710000D02*
X47990000Y-64710000D01*
X45990000Y-64710000D02*
X44340000Y-64710000D01*
X44340000Y-64710000D02*
X44340000Y-87690000D01*
X49640000Y-87690000D02*
X49640000Y-64710000D01*
X44340000Y-87690000D02*
X49640000Y-87690000D01*
X45990000Y-64710000D02*
G75*
G03*
X47990000Y-64710000I1000000J0D01*
G01*
%TO.C,J3*%
X85150000Y-130870000D02*
X85150000Y-128210000D01*
X79950000Y-130870000D02*
X79950000Y-129540000D01*
X82550000Y-130870000D02*
X82550000Y-128210000D01*
X81280000Y-130870000D02*
X79950000Y-130870000D01*
X82550000Y-128210000D02*
X85150000Y-128210000D01*
X82550000Y-130870000D02*
X85150000Y-130870000D01*
%TO.C,J4*%
X92650000Y-130870000D02*
X92650000Y-129540000D01*
X97850000Y-130870000D02*
X97850000Y-128210000D01*
X95250000Y-128210000D02*
X97850000Y-128210000D01*
X95250000Y-130870000D02*
X97850000Y-130870000D01*
X95250000Y-130870000D02*
X95250000Y-128210000D01*
X93980000Y-130870000D02*
X92650000Y-130870000D01*
%TD*%
M02*
