%TF.GenerationSoftware,KiCad,Pcbnew,(6.0.1)*%
%TF.CreationDate,2022-07-03T17:59:52-04:00*%
%TF.ProjectId,tesy,74657379-2e6b-4696-9361-645f70636258,rev?*%
%TF.SameCoordinates,Original*%
%TF.FileFunction,Soldermask,Top*%
%TF.FilePolarity,Negative*%
%FSLAX46Y46*%
G04 Gerber Fmt 4.6, Leading zero omitted, Abs format (unit mm)*
G04 Created by KiCad (PCBNEW (6.0.1)) date 2022-07-03 17:59:52*
%MOMM*%
%LPD*%
G01*
G04 APERTURE LIST*
%ADD10C,3.500000*%
%ADD11R,1.600000X1.600000*%
%ADD12O,1.600000X1.600000*%
%ADD13R,2.500000X2.500000*%
%ADD14C,2.500000*%
%ADD15R,1.700000X1.700000*%
%ADD16O,1.700000X1.700000*%
G04 APERTURE END LIST*
D10*
%TO.C,REF1*%
X142240000Y-60960000D03*
%TD*%
D11*
%TO.C,U2*%
X127000000Y-66040000D03*
D12*
X127000000Y-68580000D03*
X127000000Y-71120000D03*
X127000000Y-73660000D03*
X127000000Y-76200000D03*
X127000000Y-78740000D03*
X127000000Y-81280000D03*
X127000000Y-83820000D03*
X127000000Y-86360000D03*
X134620000Y-86360000D03*
X134620000Y-83820000D03*
X134620000Y-81280000D03*
X134620000Y-78740000D03*
X134620000Y-76200000D03*
X134620000Y-73660000D03*
X134620000Y-71120000D03*
X134620000Y-68580000D03*
X134620000Y-66040000D03*
%TD*%
D11*
%TO.C,U3*%
X77470000Y-55483500D03*
D12*
X77470000Y-58023500D03*
X77470000Y-60563500D03*
X77470000Y-63103500D03*
X77470000Y-65643500D03*
X77470000Y-68183500D03*
X77470000Y-70723500D03*
X77470000Y-73263500D03*
X77470000Y-75803500D03*
X77470000Y-78343500D03*
X77470000Y-80883500D03*
X77470000Y-83423500D03*
X77470000Y-85963500D03*
X77470000Y-88503500D03*
X77470000Y-91043500D03*
X77470000Y-93583500D03*
X77470000Y-96123500D03*
X77470000Y-98663500D03*
X77470000Y-101203500D03*
X77470000Y-103743500D03*
X100330000Y-103743500D03*
X100330000Y-101203500D03*
X100330000Y-98663500D03*
X100330000Y-96123500D03*
X100330000Y-93583500D03*
X100330000Y-91043500D03*
X100330000Y-88503500D03*
X100330000Y-85963500D03*
X100330000Y-83423500D03*
X100330000Y-80883500D03*
X100330000Y-78343500D03*
X100330000Y-75803500D03*
X100330000Y-73263500D03*
X100330000Y-70723500D03*
X100330000Y-68183500D03*
X100330000Y-65643500D03*
X100330000Y-63103500D03*
X100330000Y-60563500D03*
X100330000Y-58023500D03*
X100330000Y-55483500D03*
%TD*%
D13*
%TO.C,J2*%
X147340000Y-129540000D03*
D14*
X142260000Y-129540000D03*
X137180000Y-129540000D03*
X132100000Y-129540000D03*
X127020000Y-129540000D03*
X121940000Y-129540000D03*
X116860000Y-129540000D03*
X111780000Y-129540000D03*
%TD*%
D10*
%TO.C,REF3*%
X104140000Y-119380000D03*
%TD*%
D13*
%TO.C,J1*%
X66060000Y-129540000D03*
D14*
X60980000Y-129540000D03*
X55900000Y-129540000D03*
X50820000Y-129540000D03*
X45740000Y-129540000D03*
X40660000Y-129540000D03*
X35580000Y-129540000D03*
X30500000Y-129540000D03*
%TD*%
D10*
%TO.C,REF2*%
X33020000Y-91440000D03*
%TD*%
D11*
%TO.C,U1*%
X43180000Y-66040000D03*
D12*
X43180000Y-68580000D03*
X43180000Y-71120000D03*
X43180000Y-73660000D03*
X43180000Y-76200000D03*
X43180000Y-78740000D03*
X43180000Y-81280000D03*
X43180000Y-83820000D03*
X43180000Y-86360000D03*
X50800000Y-86360000D03*
X50800000Y-83820000D03*
X50800000Y-81280000D03*
X50800000Y-78740000D03*
X50800000Y-76200000D03*
X50800000Y-73660000D03*
X50800000Y-71120000D03*
X50800000Y-68580000D03*
X50800000Y-66040000D03*
%TD*%
D15*
%TO.C,J3*%
X81280000Y-129540000D03*
D16*
X83820000Y-129540000D03*
%TD*%
D15*
%TO.C,J4*%
X93980000Y-129540000D03*
D16*
X96520000Y-129540000D03*
%TD*%
M02*
