M48
; DRILL file {KiCad (6.0.1)} date Sun Jul  3 17:56:41 2022
; FORMAT={-:-/ absolute / inch / decimal}
; #@! TF.CreationDate,2022-07-03T17:56:41-04:00
; #@! TF.GenerationSoftware,Kicad,Pcbnew,(6.0.1)
; #@! TF.FileFunction,Plated,1,2,PTH
FMAT,2
INCH
; #@! TA.AperFunction,Plated,PTH,ComponentDrill
T1C0.0315
; #@! TA.AperFunction,Plated,PTH,ComponentDrill
T2C0.0394
; #@! TA.AperFunction,Plated,PTH,ComponentDrill
T3C0.0512
%
G90
G05
T1
X1.7Y-2.6
X1.7Y-2.7
X1.7Y-2.8
X1.7Y-2.9
X1.7Y-3.0
X1.7Y-3.1
X1.7Y-3.2
X1.7Y-3.3
X1.7Y-3.4
X2.0Y-2.6
X2.0Y-2.7
X2.0Y-2.8
X2.0Y-2.9
X2.0Y-3.0
X2.0Y-3.1
X2.0Y-3.2
X2.0Y-3.3
X2.0Y-3.4
X3.05Y-2.1844
X3.05Y-2.2844
X3.05Y-2.3844
X3.05Y-2.4844
X3.05Y-2.5844
X3.05Y-2.6844
X3.05Y-2.7844
X3.05Y-2.8844
X3.05Y-2.9844
X3.05Y-3.0844
X3.05Y-3.1844
X3.05Y-3.2844
X3.05Y-3.3844
X3.05Y-3.4844
X3.05Y-3.5844
X3.05Y-3.6844
X3.05Y-3.7844
X3.05Y-3.8844
X3.05Y-3.9844
X3.05Y-4.0844
X3.95Y-2.1844
X3.95Y-2.2844
X3.95Y-2.3844
X3.95Y-2.4844
X3.95Y-2.5844
X3.95Y-2.6844
X3.95Y-2.7844
X3.95Y-2.8844
X3.95Y-2.9844
X3.95Y-3.0844
X3.95Y-3.1844
X3.95Y-3.2844
X3.95Y-3.3844
X3.95Y-3.4844
X3.95Y-3.5844
X3.95Y-3.6844
X3.95Y-3.7844
X3.95Y-3.8844
X3.95Y-3.9844
X3.95Y-4.0844
X5.0Y-2.6
X5.0Y-2.7
X5.0Y-2.8
X5.0Y-2.9
X5.0Y-3.0
X5.0Y-3.1
X5.0Y-3.2
X5.0Y-3.3
X5.0Y-3.4
X5.3Y-2.6
X5.3Y-2.7
X5.3Y-2.8
X5.3Y-2.9
X5.3Y-3.0
X5.3Y-3.1
X5.3Y-3.2
X5.3Y-3.3
X5.3Y-3.4
T2
X3.2Y-5.1
X3.3Y-5.1
X3.7Y-5.1
X3.8Y-5.1
T3
X1.2008Y-5.1
X1.4008Y-5.1
X1.6008Y-5.1
X1.8008Y-5.1
X2.0008Y-5.1
X2.2008Y-5.1
X2.4008Y-5.1
X2.6008Y-5.1
X4.4008Y-5.1
X4.6008Y-5.1
X4.8008Y-5.1
X5.0008Y-5.1
X5.2008Y-5.1
X5.4008Y-5.1
X5.6008Y-5.1
X5.8008Y-5.1
T0
M30
