%TF.GenerationSoftware,KiCad,Pcbnew,(6.0.1)*%
%TF.CreationDate,2022-07-03T17:59:52-04:00*%
%TF.ProjectId,tesy,74657379-2e6b-4696-9361-645f70636258,rev?*%
%TF.SameCoordinates,Original*%
%TF.FileFunction,Copper,L1,Top*%
%TF.FilePolarity,Positive*%
%FSLAX46Y46*%
G04 Gerber Fmt 4.6, Leading zero omitted, Abs format (unit mm)*
G04 Created by KiCad (PCBNEW (6.0.1)) date 2022-07-03 17:59:52*
%MOMM*%
%LPD*%
G01*
G04 APERTURE LIST*
%TA.AperFunction,ComponentPad*%
%ADD10R,1.600000X1.600000*%
%TD*%
%TA.AperFunction,ComponentPad*%
%ADD11O,1.600000X1.600000*%
%TD*%
%TA.AperFunction,ComponentPad*%
%ADD12R,2.500000X2.500000*%
%TD*%
%TA.AperFunction,ComponentPad*%
%ADD13C,2.500000*%
%TD*%
%TA.AperFunction,ComponentPad*%
%ADD14R,1.700000X1.700000*%
%TD*%
%TA.AperFunction,ComponentPad*%
%ADD15O,1.700000X1.700000*%
%TD*%
%TA.AperFunction,Conductor*%
%ADD16C,0.250000*%
%TD*%
G04 APERTURE END LIST*
D10*
%TO.P,U2,1,I1*%
%TO.N,Net-(U2-Pad1)*%
X127000000Y-66040000D03*
D11*
%TO.P,U2,2,I2*%
%TO.N,Net-(U2-Pad2)*%
X127000000Y-68580000D03*
%TO.P,U2,3,I3*%
%TO.N,Net-(U2-Pad3)*%
X127000000Y-71120000D03*
%TO.P,U2,4,I4*%
%TO.N,Net-(U2-Pad4)*%
X127000000Y-73660000D03*
%TO.P,U2,5,I5*%
%TO.N,Net-(U2-Pad5)*%
X127000000Y-76200000D03*
%TO.P,U2,6,I6*%
%TO.N,Net-(U2-Pad6)*%
X127000000Y-78740000D03*
%TO.P,U2,7,I7*%
%TO.N,Net-(U2-Pad7)*%
X127000000Y-81280000D03*
%TO.P,U2,8,I8*%
%TO.N,Net-(U2-Pad8)*%
X127000000Y-83820000D03*
%TO.P,U2,9,Vs*%
%TO.N,VCC*%
X127000000Y-86360000D03*
%TO.P,U2,10,GND*%
%TO.N,GND*%
X134620000Y-86360000D03*
%TO.P,U2,11,O8*%
%TO.N,Net-(J2-Pad8)*%
X134620000Y-83820000D03*
%TO.P,U2,12,O7*%
%TO.N,Net-(J2-Pad7)*%
X134620000Y-81280000D03*
%TO.P,U2,13,O6*%
%TO.N,Net-(J2-Pad6)*%
X134620000Y-78740000D03*
%TO.P,U2,14,O5*%
%TO.N,Net-(J2-Pad5)*%
X134620000Y-76200000D03*
%TO.P,U2,15,O4*%
%TO.N,Net-(J2-Pad4)*%
X134620000Y-73660000D03*
%TO.P,U2,16,O3*%
%TO.N,Net-(J2-Pad3)*%
X134620000Y-71120000D03*
%TO.P,U2,17,O2*%
%TO.N,Net-(J2-Pad2)*%
X134620000Y-68580000D03*
%TO.P,U2,18,O1*%
%TO.N,Net-(J2-Pad1)*%
X134620000Y-66040000D03*
%TD*%
D10*
%TO.P,U3,1,SenseVp*%
%TO.N,unconnected-(U3-Pad1)*%
X77470000Y-55483500D03*
D11*
%TO.P,U3,2,SenseVN*%
%TO.N,unconnected-(U3-Pad2)*%
X77470000Y-58023500D03*
%TO.P,U3,3,GND*%
%TO.N,unconnected-(U3-Pad3)*%
X77470000Y-60563500D03*
%TO.P,U3,4,Vin*%
%TO.N,unconnected-(U3-Pad4)*%
X77470000Y-63103500D03*
%TO.P,U3,5,IO35*%
%TO.N,unconnected-(U3-Pad5)*%
X77470000Y-65643500D03*
%TO.P,U3,6,IO34*%
%TO.N,unconnected-(U3-Pad6)*%
X77470000Y-68183500D03*
%TO.P,U3,7,IO33*%
%TO.N,Net-(U1-Pad1)*%
X77470000Y-70723500D03*
%TO.P,U3,8,IO32*%
%TO.N,Net-(U1-Pad2)*%
X77470000Y-73263500D03*
%TO.P,U3,9,3_3v*%
%TO.N,unconnected-(U3-Pad9)*%
X77470000Y-75803500D03*
%TO.P,U3,10,DAC0*%
%TO.N,Net-(U1-Pad3)*%
X77470000Y-78343500D03*
%TO.P,U3,11,DAC1*%
%TO.N,Net-(U1-Pad4)*%
X77470000Y-80883500D03*
%TO.P,U3,12,IO27*%
%TO.N,Net-(U1-Pad5)*%
X77470000Y-83423500D03*
%TO.P,U3,13,Vhi*%
%TO.N,VCC*%
X77470000Y-85963500D03*
%TO.P,U3,14,IO23*%
%TO.N,Net-(U1-Pad6)*%
X77470000Y-88503500D03*
%TO.P,U3,15,IO22*%
%TO.N,Net-(U1-Pad7)*%
X77470000Y-91043500D03*
%TO.P,U3,16,IO21*%
%TO.N,Net-(U1-Pad8)*%
X77470000Y-93583500D03*
%TO.P,U3,17,EN*%
%TO.N,unconnected-(U3-Pad17)*%
X77470000Y-96123500D03*
%TO.P,U3,18,3_3v*%
%TO.N,unconnected-(U3-Pad18)*%
X77470000Y-98663500D03*
%TO.P,U3,19,5v*%
%TO.N,unconnected-(U3-Pad19)*%
X77470000Y-101203500D03*
%TO.P,U3,20,GND*%
%TO.N,GND*%
X77470000Y-103743500D03*
%TO.P,U3,21,GND*%
%TO.N,unconnected-(U3-Pad21)*%
X100330000Y-103743500D03*
%TO.P,U3,22,Vin*%
%TO.N,unconnected-(U3-Pad22)*%
X100330000Y-101203500D03*
%TO.P,U3,23,3_3v*%
%TO.N,unconnected-(U3-Pad23)*%
X100330000Y-98663500D03*
%TO.P,U3,24,IO0*%
%TO.N,unconnected-(U3-Pad24)*%
X100330000Y-96123500D03*
%TO.P,U3,25,IO2*%
%TO.N,Net-(U2-Pad8)*%
X100330000Y-93583500D03*
%TO.P,U3,26,IO4*%
%TO.N,Net-(U2-Pad7)*%
X100330000Y-91043500D03*
%TO.P,U3,27,IO5*%
%TO.N,unconnected-(U3-Pad27)*%
X100330000Y-88503500D03*
%TO.P,U3,28,IO12*%
%TO.N,Net-(U2-Pad6)*%
X100330000Y-85963500D03*
%TO.P,U3,29,IO13*%
%TO.N,Net-(U2-Pad5)*%
X100330000Y-83423500D03*
%TO.P,U3,30,IO14*%
%TO.N,unconnected-(U3-Pad30)*%
X100330000Y-80883500D03*
%TO.P,U3,31,IO15*%
%TO.N,unconnected-(U3-Pad31)*%
X100330000Y-78343500D03*
%TO.P,U3,32,3_3v*%
%TO.N,unconnected-(U3-Pad32)*%
X100330000Y-75803500D03*
%TO.P,U3,33,IO16*%
%TO.N,Net-(U2-Pad4)*%
X100330000Y-73263500D03*
%TO.P,U3,34,IO17*%
%TO.N,Net-(U2-Pad3)*%
X100330000Y-70723500D03*
%TO.P,U3,35,IO18*%
%TO.N,Net-(U2-Pad2)*%
X100330000Y-68183500D03*
%TO.P,U3,36,IO19*%
%TO.N,Net-(U2-Pad1)*%
X100330000Y-65643500D03*
%TO.P,U3,37,Vin*%
%TO.N,unconnected-(U3-Pad37)*%
X100330000Y-63103500D03*
%TO.P,U3,38,GND*%
%TO.N,unconnected-(U3-Pad38)*%
X100330000Y-60563500D03*
%TO.P,U3,39,RxD*%
%TO.N,unconnected-(U3-Pad39)*%
X100330000Y-58023500D03*
%TO.P,U3,40,TxD*%
%TO.N,unconnected-(U3-Pad40)*%
X100330000Y-55483500D03*
%TD*%
D12*
%TO.P,J2,1,Pin_1*%
%TO.N,Net-(J2-Pad1)*%
X147340000Y-129540000D03*
D13*
%TO.P,J2,2,Pin_2*%
%TO.N,Net-(J2-Pad2)*%
X142260000Y-129540000D03*
%TO.P,J2,3,Pin_3*%
%TO.N,Net-(J2-Pad3)*%
X137180000Y-129540000D03*
%TO.P,J2,4,Pin_4*%
%TO.N,Net-(J2-Pad4)*%
X132100000Y-129540000D03*
%TO.P,J2,5,Pin_5*%
%TO.N,Net-(J2-Pad5)*%
X127020000Y-129540000D03*
%TO.P,J2,6,Pin_6*%
%TO.N,Net-(J2-Pad6)*%
X121940000Y-129540000D03*
%TO.P,J2,7,Pin_7*%
%TO.N,Net-(J2-Pad7)*%
X116860000Y-129540000D03*
%TO.P,J2,8,Pin_8*%
%TO.N,Net-(J2-Pad8)*%
X111780000Y-129540000D03*
%TD*%
D12*
%TO.P,J1,1,Pin_1*%
%TO.N,Net-(J1-Pad1)*%
X66060000Y-129540000D03*
D13*
%TO.P,J1,2,Pin_2*%
%TO.N,Net-(J1-Pad2)*%
X60980000Y-129540000D03*
%TO.P,J1,3,Pin_3*%
%TO.N,Net-(J1-Pad3)*%
X55900000Y-129540000D03*
%TO.P,J1,4,Pin_4*%
%TO.N,Net-(J1-Pad4)*%
X50820000Y-129540000D03*
%TO.P,J1,5,Pin_5*%
%TO.N,Net-(J1-Pad5)*%
X45740000Y-129540000D03*
%TO.P,J1,6,Pin_6*%
%TO.N,Net-(J1-Pad6)*%
X40660000Y-129540000D03*
%TO.P,J1,7,Pin_7*%
%TO.N,Net-(J1-Pad7)*%
X35580000Y-129540000D03*
%TO.P,J1,8,Pin_8*%
%TO.N,Net-(J1-Pad8)*%
X30500000Y-129540000D03*
%TD*%
D10*
%TO.P,U1,1,I1*%
%TO.N,Net-(U1-Pad1)*%
X43180000Y-66040000D03*
D11*
%TO.P,U1,2,I2*%
%TO.N,Net-(U1-Pad2)*%
X43180000Y-68580000D03*
%TO.P,U1,3,I3*%
%TO.N,Net-(U1-Pad3)*%
X43180000Y-71120000D03*
%TO.P,U1,4,I4*%
%TO.N,Net-(U1-Pad4)*%
X43180000Y-73660000D03*
%TO.P,U1,5,I5*%
%TO.N,Net-(U1-Pad5)*%
X43180000Y-76200000D03*
%TO.P,U1,6,I6*%
%TO.N,Net-(U1-Pad6)*%
X43180000Y-78740000D03*
%TO.P,U1,7,I7*%
%TO.N,Net-(U1-Pad7)*%
X43180000Y-81280000D03*
%TO.P,U1,8,I8*%
%TO.N,Net-(U1-Pad8)*%
X43180000Y-83820000D03*
%TO.P,U1,9,Vs*%
%TO.N,VCC*%
X43180000Y-86360000D03*
%TO.P,U1,10,GND*%
%TO.N,GND*%
X50800000Y-86360000D03*
%TO.P,U1,11,O8*%
%TO.N,Net-(J1-Pad8)*%
X50800000Y-83820000D03*
%TO.P,U1,12,O7*%
%TO.N,Net-(J1-Pad7)*%
X50800000Y-81280000D03*
%TO.P,U1,13,O6*%
%TO.N,Net-(J1-Pad6)*%
X50800000Y-78740000D03*
%TO.P,U1,14,O5*%
%TO.N,Net-(J1-Pad5)*%
X50800000Y-76200000D03*
%TO.P,U1,15,O4*%
%TO.N,Net-(J1-Pad4)*%
X50800000Y-73660000D03*
%TO.P,U1,16,O3*%
%TO.N,Net-(J1-Pad3)*%
X50800000Y-71120000D03*
%TO.P,U1,17,O2*%
%TO.N,Net-(J1-Pad2)*%
X50800000Y-68580000D03*
%TO.P,U1,18,O1*%
%TO.N,Net-(J1-Pad1)*%
X50800000Y-66040000D03*
%TD*%
D14*
%TO.P,J3,1,Pin_1*%
%TO.N,VCC*%
X81280000Y-129540000D03*
D15*
%TO.P,J3,2,Pin_2*%
%TO.N,GND*%
X83820000Y-129540000D03*
%TD*%
D14*
%TO.P,J4,1,Pin_1*%
%TO.N,GND*%
X93980000Y-129540000D03*
D15*
%TO.P,J4,2,Pin_2*%
X96520000Y-129540000D03*
%TD*%
D16*
%TO.N,Net-(U1-Pad2)*%
X44541489Y-69941489D02*
X43180000Y-68580000D01*
X77470000Y-73263500D02*
X74147989Y-69941489D01*
X74147989Y-69941489D02*
X44541489Y-69941489D01*
%TO.N,Net-(U1-Pad1)*%
X74147989Y-67401489D02*
X44541489Y-67401489D01*
X44541489Y-67401489D02*
X43180000Y-66040000D01*
X77470000Y-70723500D02*
X74147989Y-67401489D01*
%TO.N,Net-(U1-Pad3)*%
X77470000Y-78343500D02*
X71425011Y-72298511D01*
X71425011Y-72298511D02*
X44358511Y-72298511D01*
X44358511Y-72298511D02*
X43180000Y-71120000D01*
%TO.N,Net-(U1-Pad4)*%
X44358511Y-74838511D02*
X43180000Y-73660000D01*
X77470000Y-80883500D02*
X71425011Y-74838511D01*
X71425011Y-74838511D02*
X44358511Y-74838511D01*
%TO.N,Net-(U1-Pad5)*%
X71425011Y-77378511D02*
X44358511Y-77378511D01*
X77470000Y-83423500D02*
X71425011Y-77378511D01*
X44358511Y-77378511D02*
X43180000Y-76200000D01*
%TO.N,Net-(U1-Pad6)*%
X44358511Y-79918511D02*
X43180000Y-78740000D01*
X77470000Y-88503500D02*
X68885011Y-79918511D01*
X68885011Y-79918511D02*
X44358511Y-79918511D01*
%TO.N,Net-(U1-Pad7)*%
X77470000Y-91043500D02*
X71607989Y-85181489D01*
X71607989Y-85181489D02*
X47081489Y-85181489D01*
X47081489Y-85181489D02*
X43180000Y-81280000D01*
%TO.N,GND*%
X96520000Y-129540000D02*
X93980000Y-129540000D01*
X93980000Y-129540000D02*
X83820000Y-129540000D01*
X68183500Y-103743500D02*
X50800000Y-86360000D01*
X129540000Y-86360000D02*
X96520000Y-119380000D01*
X134620000Y-86360000D02*
X129540000Y-86360000D01*
X83820000Y-110093500D02*
X77470000Y-103743500D01*
X77470000Y-103743500D02*
X68183500Y-103743500D01*
X96520000Y-119380000D02*
X96520000Y-129540000D01*
X83820000Y-129540000D02*
X83820000Y-110093500D01*
%TO.N,Net-(U2-Pad1)*%
X100726500Y-66040000D02*
X100330000Y-65643500D01*
X127000000Y-66040000D02*
X100726500Y-66040000D01*
%TO.N,Net-(U2-Pad2)*%
X127000000Y-68580000D02*
X100726500Y-68580000D01*
X100726500Y-68580000D02*
X100330000Y-68183500D01*
%TO.N,Net-(U2-Pad3)*%
X127000000Y-71120000D02*
X100726500Y-71120000D01*
X100726500Y-71120000D02*
X100330000Y-70723500D01*
%TO.N,Net-(U2-Pad4)*%
X100726500Y-73660000D02*
X100330000Y-73263500D01*
X127000000Y-73660000D02*
X100726500Y-73660000D01*
%TO.N,Net-(U2-Pad5)*%
X100330000Y-83423500D02*
X119776500Y-83423500D01*
X119776500Y-83423500D02*
X127000000Y-76200000D01*
%TO.N,Net-(U2-Pad6)*%
X119776500Y-85963500D02*
X127000000Y-78740000D01*
X100330000Y-85963500D02*
X119776500Y-85963500D01*
%TO.N,Net-(U2-Pad7)*%
X100330000Y-91043500D02*
X117236500Y-91043500D01*
X117236500Y-91043500D02*
X127000000Y-81280000D01*
%TO.N,Net-(U2-Pad8)*%
X100330000Y-93583500D02*
X117236500Y-93583500D01*
X117236500Y-93583500D02*
X127000000Y-83820000D01*
%TO.N,Net-(J2-Pad8)*%
X111760000Y-114300000D02*
X111780000Y-114320000D01*
X111780000Y-114320000D02*
X111780000Y-129540000D01*
X135798511Y-90261489D02*
X111760000Y-114300000D01*
X135798511Y-84998511D02*
X135798511Y-90261489D01*
X134620000Y-83820000D02*
X135798511Y-84998511D01*
%TO.N,Net-(J2-Pad7)*%
X136302030Y-82962030D02*
X136302030Y-92297970D01*
X136302030Y-92297970D02*
X116840000Y-111760000D01*
X116840000Y-111760000D02*
X116860000Y-111780000D01*
X116860000Y-111780000D02*
X116860000Y-129540000D01*
X134620000Y-81280000D02*
X136302030Y-82962030D01*
%TO.N,Net-(J2-Pad6)*%
X136805549Y-96874451D02*
X121920000Y-111760000D01*
X121940000Y-111780000D02*
X121940000Y-129540000D01*
X136805549Y-80925549D02*
X136805549Y-96874451D01*
X121920000Y-111760000D02*
X121940000Y-111780000D01*
X134620000Y-78740000D02*
X136805549Y-80925549D01*
%TO.N,Net-(J2-Pad5)*%
X137309069Y-78889069D02*
X137309069Y-103990931D01*
X137309069Y-103990931D02*
X127000000Y-114300000D01*
X134620000Y-76200000D02*
X137309069Y-78889069D01*
X127000000Y-114300000D02*
X127020000Y-114320000D01*
X127020000Y-114320000D02*
X127020000Y-129540000D01*
%TO.N,Net-(J2-Pad4)*%
X137812588Y-76852588D02*
X137812588Y-108567412D01*
X132100000Y-114320000D02*
X132100000Y-129540000D01*
X134620000Y-73660000D02*
X137812588Y-76852588D01*
X137812588Y-108567412D02*
X132080000Y-114300000D01*
X132080000Y-114300000D02*
X132100000Y-114320000D01*
%TO.N,Net-(J2-Pad3)*%
X138316107Y-115683893D02*
X137160000Y-116840000D01*
X137160000Y-116840000D02*
X137180000Y-116860000D01*
X137180000Y-116860000D02*
X137180000Y-129540000D01*
X138316107Y-74816107D02*
X138316107Y-115683893D01*
X134620000Y-71120000D02*
X138316107Y-74816107D01*
%TO.N,Net-(J2-Pad2)*%
X134620000Y-68580000D02*
X142260000Y-76220000D01*
X142260000Y-76220000D02*
X142260000Y-129540000D01*
%TO.N,Net-(J2-Pad1)*%
X147340000Y-78760000D02*
X134620000Y-66040000D01*
X147340000Y-129540000D02*
X147340000Y-78760000D01*
%TD*%
M02*
